<svg id="a051bf14-6483-44ed-ac36-a6cc6cbe5e03" data-name="Layer 1" xmlns="http://www.w3.org/2000/svg" viewBox="0 0 432 305.45"><defs><style>.ebebacb7-d464-450d-a579-d4b7f99a57d7{fill:none;stroke:#fff;stroke-miterlimit:10;stroke-width:1.08px;}.f25de876-e406-45d5-a114-a41c96c8bdfa{fill:#fff;}</style></defs><title>ICON7</title><path class="ebebacb7-d464-450d-a579-d4b7f99a57d7" d="M234.44,127.5c-1.11-3.64-6.42-6.41-12.82-6.41-5.71,0-10.54,2.2-12.31,5.26-4.43.81-7.73,3.9-7.73,7.59a2.83,2.83,0,0,0,0,.29,12.57,12.57,0,0,0-4.73,8.82h1.67a9,9,0,0,1,6.17-3.44,11.62,11.62,0,0,0,6.89,2.15,13.25,13.25,0,0,0,2.11-.18,12.24,12.24,0,0,0,12.89,0,12.79,12.79,0,0,0,2.17.19c5.54,0,10-3.5,10-7.82C238.79,131.27,237.07,128.91,234.44,127.5Z"/><path class="f25de876-e406-45d5-a114-a41c96c8bdfa" d="M200.48,144.06a.25.25,0,0,1-.25.25h-4.94a.25.25,0,0,1-.25-.25v-.34a.26.26,0,0,1,.25-.26h4.94a.26.26,0,0,1,.25.26Z"/><path class="f25de876-e406-45d5-a114-a41c96c8bdfa" d="M203.83,184.8v-.29a1.25,1.25,0,0,0-1.24-1.25h-9.65a1.25,1.25,0,0,0-1.24,1.25v.29Z"/><path class="f25de876-e406-45d5-a114-a41c96c8bdfa" d="M194.24,166.08c-.09,1.36-.19,2.68-.28,3.95h7.6c-.09-1.27-.18-2.59-.27-3.95Z"/><path class="f25de876-e406-45d5-a114-a41c96c8bdfa" d="M202.2,178.61c-.09-1.15-.19-2.47-.3-4h-8.27c-.11,1.48-.21,2.8-.3,4Z"/><path class="f25de876-e406-45d5-a114-a41c96c8bdfa" d="M195.23,148.94c-.06,1.28-.12,2.6-.19,3.94h5.45c-.07-1.34-.14-2.66-.19-3.94Z"/><path class="f25de876-e406-45d5-a114-a41c96c8bdfa" d="M194.78,157.51c-.07,1.32-.15,2.64-.24,4H201c-.09-1.31-.17-2.63-.25-4Z"/><path class="f25de876-e406-45d5-a114-a41c96c8bdfa" d="M243.65,160.81a.57.57,0,0,1-.56.57h-29.8a.57.57,0,0,1-.56-.57v-.59a.56.56,0,0,1,.56-.56h29.8a.57.57,0,0,1,.56.56Z"/><path class="f25de876-e406-45d5-a114-a41c96c8bdfa" d="M218.19,179.45a2.13,2.13,0,1,1,2.11-2.13,2.11,2.11,0,0,1-2.11,2.13m0-6.06a3.94,3.94,0,1,0,3.9,3.93,3.92,3.92,0,0,0-3.9-3.93"/><path class="f25de876-e406-45d5-a114-a41c96c8bdfa" d="M219.81,177.32a1.62,1.62,0,1,1-1.62-1.63,1.62,1.62,0,0,1,1.62,1.63"/><path class="f25de876-e406-45d5-a114-a41c96c8bdfa" d="M238.34,179.45a2.13,2.13,0,1,1,2.11-2.13,2.12,2.12,0,0,1-2.11,2.13m0-6.06a3.94,3.94,0,1,0,3.9,3.93,3.92,3.92,0,0,0-3.9-3.93"/><path class="f25de876-e406-45d5-a114-a41c96c8bdfa" d="M240,177.32a1.62,1.62,0,1,1-1.62-1.63,1.62,1.62,0,0,1,1.62,1.63"/><polygon class="f25de876-e406-45d5-a114-a41c96c8bdfa" points="212.73 173.68 215.12 173.68 214.45 170.06 212.73 170.06 212.73 173.68"/><path class="f25de876-e406-45d5-a114-a41c96c8bdfa" d="M212.47,173.78a.37.37,0,0,1-.36.37h-.53a.37.37,0,0,1-.37-.37V170a.36.36,0,0,1,.37-.37h.53a.36.36,0,0,1,.36.37Z"/><polygon class="f25de876-e406-45d5-a114-a41c96c8bdfa" points="243.66 173.68 241.27 173.68 241.94 170.06 243.66 170.06 243.66 173.68"/><path class="f25de876-e406-45d5-a114-a41c96c8bdfa" d="M243.92,173.78a.37.37,0,0,0,.36.37h.53a.37.37,0,0,0,.37-.37V170a.36.36,0,0,0-.37-.37h-.53a.36.36,0,0,0-.36.37Z"/><path class="f25de876-e406-45d5-a114-a41c96c8bdfa" d="M216.06,184v-.59a.63.63,0,0,0-.62-.63h-1.65a.63.63,0,0,0-.62.63V184Z"/><path class="f25de876-e406-45d5-a114-a41c96c8bdfa" d="M224.87,184v-.59a.63.63,0,0,0-.62-.63H222.6a.63.63,0,0,0-.62.63V184Z"/><path class="f25de876-e406-45d5-a114-a41c96c8bdfa" d="M233.68,184v-.59a.63.63,0,0,0-.62-.63h-1.64a.63.63,0,0,0-.63.63V184Z"/><path class="f25de876-e406-45d5-a114-a41c96c8bdfa" d="M242.5,184v-.59a.63.63,0,0,0-.63-.63h-1.64a.63.63,0,0,0-.63.63V184Z"/><path class="f25de876-e406-45d5-a114-a41c96c8bdfa" d="M211.68,181.69v1.69h1a1.11,1.11,0,0,1,1.11-1.11h1.65a1.11,1.11,0,0,1,1.11,1.11h4.94a1.11,1.11,0,0,1,1.11-1.11h1.65a1.11,1.11,0,0,1,1.11,1.11h4.94a1.12,1.12,0,0,1,1.12-1.11h1.64a1.11,1.11,0,0,1,1.11,1.11h4.94a1.12,1.12,0,0,1,1.12-1.11h1.64a1.11,1.11,0,0,1,1.11,1.11h1.32v-1.69Z"/><path class="ebebacb7-d464-450d-a579-d4b7f99a57d7" d="M241.82,159.08a8.36,8.36,0,0,0-2.81-1.72c-1.51-1.87-4.66-3.16-8.3-3.16-.52,0-1,0-1.53.08-2.46.25-6.76,1.09-8.16,2.28a11,11,0,0,0-5.65,2.52h26.45Z"/><path class="f25de876-e406-45d5-a114-a41c96c8bdfa" d="M229.07,161.9h-15.8l2,11.18a7.5,7.5,0,0,0,.18.78,4.37,4.37,0,0,1,7.09,3.46c0,.05,0,.09,0,.14H234v-.14a4.39,4.39,0,0,1,4.37-4.41,4.34,4.34,0,0,1,2.58.85,6.22,6.22,0,0,0,.15-.68l2-11.18Z"/><path class="f25de876-e406-45d5-a114-a41c96c8bdfa" d="M201,161.8h-4.2c-.12,1.33-.26,2.65-.4,3.95h4.86c-.09-1.3-.18-2.62-.26-3.95"/><path class="f25de876-e406-45d5-a114-a41c96c8bdfa" d="M200.14,144.67h-2.41c0,1.32-.06,2.63-.1,3.93h2.65c-.05-1.36-.1-2.68-.14-3.93"/><path class="f25de876-e406-45d5-a114-a41c96c8bdfa" d="M201.59,170.37h-5.76c-.19,1.34-.38,2.65-.59,3.95h6.63c-.09-1.23-.18-2.55-.28-3.95"/><path class="f25de876-e406-45d5-a114-a41c96c8bdfa" d="M202.23,179h-7.8c-.25,1.33-.52,2.65-.8,3.94h8.91s-.12-1.48-.31-3.94"/><path class="f25de876-e406-45d5-a114-a41c96c8bdfa" d="M200.51,153.22h-3.08c-.07,1.33-.15,2.65-.24,3.95h3.53c-.07-1.32-.15-2.64-.21-3.95"/><path class="f25de876-e406-45d5-a114-a41c96c8bdfa" d="M196.81,161.8h-2.29c-.09,1.33-.17,2.65-.26,3.95h3c.15-1.3,0-2.62.16-3.95Z"/><path class="f25de876-e406-45d5-a114-a41c96c8bdfa" d="M197.73,144.67h-2.34c0,1.25-.09,2.57-.15,3.93h3.3c.05-1.3.21-2.61.23-3.93Z"/><path class="f25de876-e406-45d5-a114-a41c96c8bdfa" d="M195.83,170.37h-1.89c-.1,1.4-.2,2.72-.29,3.95h2.7c.21-1.3.4-2.61.59-3.95Z"/><path class="f25de876-e406-45d5-a114-a41c96c8bdfa" d="M194.43,179H193.3c-.19,2.46-.31,3.94-.31,3.94h2c.28-1.29.55-2.61.8-3.94Z"/><path class="f25de876-e406-45d5-a114-a41c96c8bdfa" d="M197.43,153.22H195c-.07,1.31-.14,2.63-.22,3.95h4.09c.09-1.3-.8-2.62-.73-3.95Z"/></svg>