<svg id="e0273b7d-7b39-4a13-9768-2a74396b3b81" data-name="Layer 1" xmlns="http://www.w3.org/2000/svg" xmlns:xlink="http://www.w3.org/1999/xlink" viewBox="0 0 432 305.45"><defs><style>.eb80d6e7-f936-4e00-b788-a233ceb852bf{fill:none;}.e287b550-0d50-44d9-8049-42f7d160667c{clip-path:url(#efd69523-311e-4c16-a6f9-c76672612440);}.f8fbb49f-2274-4a53-aa4b-3db56c4725bb{opacity:0.9;}.b0a6c6a5-d4de-4678-9382-cc2408491235{clip-path:url(#ae380ca2-d1fb-4161-8813-756532eb043d);}.bb821843-50f6-4381-b3f0-61e172d463a0{fill:#fff;}</style><clipPath id="efd69523-311e-4c16-a6f9-c76672612440"><rect class="eb80d6e7-f936-4e00-b788-a233ceb852bf" x="198.89" y="131.26" width="40.44" height="41.71"/></clipPath><clipPath id="ae380ca2-d1fb-4161-8813-756532eb043d"><rect class="eb80d6e7-f936-4e00-b788-a233ceb852bf" x="181.89" y="118.26" width="74.44" height="55.7"/></clipPath></defs><title>ICON1-02</title><g class="e287b550-0d50-44d9-8049-42f7d160667c"><g class="f8fbb49f-2274-4a53-aa4b-3db56c4725bb"><g class="b0a6c6a5-d4de-4678-9382-cc2408491235"><path class="bb821843-50f6-4381-b3f0-61e172d463a0" d="M236,148.74v8.91H202.21v-8.91h0V134.91h0v-1c0-.2.12-.26.36-.27h33c.24,0,.33.07.37.27v1h0v13.83Zm2.74-17.29-.11-.06,0,0h-.05l0,0-.28,0-.11,0h-38l-.11,0-.28,0-.05,0h0l0,0-.1.06a1,1,0,0,0-.59.94v0h0v.21h0v0h0a1.27,1.27,0,0,0,.06.18.54.54,0,0,0,.05.11.65.65,0,0,0,.09.16l0,0a1.11,1.11,0,0,0,.63.41l.17,0,.37,0,.19,0v15.61h0v8.33a5,5,0,0,0-.69.09,1.14,1.14,0,0,0-.92,1.24,1.17,1.17,0,0,0,1.07,1.13,5.58,5.58,0,0,0,.71,0H218v3.48l-6.53,6.68a.61.61,0,0,0-.1.14,1,1,0,0,0-.1.16.58.58,0,0,0,0,.18,1.13,1.13,0,0,0,0,.18,1,1,0,0,0,0,.17.58.58,0,0,0,0,.18.7.7,0,0,0,.1.16.45.45,0,0,0,.1.14h0a.86.86,0,0,0,.2.13l.1.07a1.15,1.15,0,0,0,.36.07,1,1,0,0,0,.35-.07l.1-.07a.92.92,0,0,0,.21-.13l5.2-5.1V172a.94.94,0,0,0,.94.94l.15,0a.7.7,0,0,0,.14,0,.94.94,0,0,0,.94-.94v-5.51l5.21,5.1a.86.86,0,0,0,.2.13l.1.07a1,1,0,0,0,.35.07,1.15,1.15,0,0,0,.36-.07l.1-.07a.86.86,0,0,0,.2-.13h0a.67.67,0,0,0,.09-.14.7.7,0,0,0,.1-.16.58.58,0,0,0,0-.18,1,1,0,0,0,0-.17,1.13,1.13,0,0,0,0-.18.58.58,0,0,0,0-.18,1,1,0,0,0-.1-.16,1.1,1.1,0,0,0-.09-.14l-6.54-6.68v-3.48h17.36a5.45,5.45,0,0,0,.7,0,1.17,1.17,0,0,0,1.07-1.13,1.13,1.13,0,0,0-.92-1.24,5,5,0,0,0-.69-.09v-8.33h0V133.71l.2,0,.36,0,.18,0a1.19,1.19,0,0,0,.62-.41.08.08,0,0,1,0,0l.09-.16s0-.07,0-.11a.64.64,0,0,0,.06-.18h0v0h0v-.11s0-.07,0-.1h0v0a1,1,0,0,0-.59-.94"/><path class="bb821843-50f6-4381-b3f0-61e172d463a0" d="M222.93,151.67a.86.86,0,0,0-.88-.86.87.87,0,1,0,0,1.74.86.86,0,0,0,.88-.88m-.89,1.71a1.69,1.69,0,0,1-1.74-1.71,1.74,1.74,0,0,1,3.48,0,1.68,1.68,0,0,1-1.74,1.7"/><path class="bb821843-50f6-4381-b3f0-61e172d463a0" d="M209.75,143.65c-.29-.31-.58-.6-.85-.9a.59.59,0,0,1,.22-1,.58.58,0,0,1,.64.18l.89.86.89-.86a.57.57,0,0,1,.63-.18.59.59,0,0,1,.23,1c-.22.23-.45.45-.69.67-.07.06-.11.11-.21.19l.88.9a.6.6,0,0,1,0,.88.58.58,0,0,1-.86,0c-.28-.29-.55-.6-.84-.92-.37.36-.67.66-1,.94a.59.59,0,1,1-.79-.88l.79-.78,0,0"/><path class="bb821843-50f6-4381-b3f0-61e172d463a0" d="M217.89,139.81l-.85-.89a.59.59,0,0,1,.22-1,.58.58,0,0,1,.64.18l.89.86.89-.87a.6.6,0,1,1,.87.82c-.22.23-.46.45-.69.67l-.22.19.89.9a.6.6,0,0,1,0,.88.59.59,0,0,1-.86,0c-.28-.29-.54-.6-.84-.93-.37.36-.66.67-1,.95a.58.58,0,0,1-1-.31.57.57,0,0,1,.21-.57c.26-.27.53-.53.8-.79,0,0,0,0,0-.05"/><path class="bb821843-50f6-4381-b3f0-61e172d463a0" d="M227.61,140.14h0a1.13,1.13,0,0,1,0-2.25h0a1.13,1.13,0,0,1,0,2.25m1.88-1.37a1.93,1.93,0,0,0-1.87-1.65h0a2,2,0,0,0-1.82,1.39,1.9,1.9,0,0,0,.9,2.16c.14.07.14.08.12.17a4.69,4.69,0,0,1-3,3.75,8.26,8.26,0,0,1-3,.49c-1,0-2.13,0-3.23.16a7.71,7.71,0,0,0-3.47,1.23,8.1,8.1,0,0,0-3.12,4.2c-.11.32-.21.65-.32,1l0,.1a2.29,2.29,0,0,0-.1-.23c-.12-.27-.24-.55-.38-.81a.59.59,0,0,0-.52-.29.71.71,0,0,0-.46.35.67.67,0,0,0,0,.51c.37.85.74,1.7,1.11,2.52a.58.58,0,0,0,.53.36.58.58,0,0,0,.37-.13l.44-.34a1.56,1.56,0,0,1,.2-.16l1.61-1.29h0l.1-.08a.56.56,0,0,0,.06-.79.53.53,0,0,0-.41-.2.61.61,0,0,0-.38.15l-1,.82-.13.1c0-.05,0-.1,0-.14.1-.36.21-.72.33-1.07a6.61,6.61,0,0,1,5.08-4.56,14.06,14.06,0,0,1,3-.29H221a9.13,9.13,0,0,0,2.72-.37,5.7,5.7,0,0,0,4.14-4.63c.05-.25.09-.33.32-.4a1.85,1.85,0,0,0,1.29-2"/></g></g></g></svg>