<svg id="ba6b5c13-f54a-4d2c-886e-9bd7140a1ad7" data-name="Layer 1" xmlns="http://www.w3.org/2000/svg" xmlns:xlink="http://www.w3.org/1999/xlink" viewBox="0 0 432 305.45"><defs><style>.f148763b-3e35-4e79-8c0b-3b880c3ca089,.ffbc10f9-3554-4453-b8ec-649c44bbcb69{fill:none;}.ecf22963-5c98-4411-91cc-51cf491d4d4e{clip-path:url(#a4339d86-b94d-4fd9-8443-456549496c74);}.b599c61f-6b8e-43a6-92b7-4c77391468a9{opacity:0.9;}.b483d8a0-513a-4129-8f6e-922ede6c3f33{clip-path:url(#becbc089-f207-45e3-893a-7691acc7987b);}.ad626c8c-2b27-494a-b77a-044d14ec77c1{fill:#fff;}.ffbc10f9-3554-4453-b8ec-649c44bbcb69{stroke:#fff;stroke-linecap:square;stroke-linejoin:round;stroke-width:1.73px;}</style><clipPath id="a4339d86-b94d-4fd9-8443-456549496c74"><rect class="f148763b-3e35-4e79-8c0b-3b880c3ca089" x="189.07" y="131.09" width="53.8" height="43.77"/></clipPath><clipPath id="becbc089-f207-45e3-893a-7691acc7987b"><rect class="f148763b-3e35-4e79-8c0b-3b880c3ca089" x="180.07" y="124.09" width="71.8" height="51.77"/></clipPath></defs><title>ICON1</title><g class="ecf22963-5c98-4411-91cc-51cf491d4d4e"><g class="b599c61f-6b8e-43a6-92b7-4c77391468a9"><g class="b483d8a0-513a-4129-8f6e-922ede6c3f33"><path class="ad626c8c-2b27-494a-b77a-044d14ec77c1" d="M199.7,151.26a5.28,5.28,0,0,1,.65-2.57.52.52,0,0,0-.49-.68h-9.93v26h9.93a.51.51,0,0,0,.49-.67,5.33,5.33,0,0,1-.65-2.58,3.25,3.25,0,0,1,6.5,0,5.33,5.33,0,0,1-.65,2.58.51.51,0,0,0,.49.67H216v-9.9a.51.51,0,0,1,.67-.5,5.37,5.37,0,0,0,2.58.65,3.25,3.25,0,1,0,0-6.49,5.37,5.37,0,0,0-2.58.65.51.51,0,0,1-.67-.49V148H206a.52.52,0,0,0-.49.68,5.28,5.28,0,0,1,.65,2.57,3.25,3.25,0,0,1-6.5,0m39.05,6.5a5.33,5.33,0,0,1,2.58.65.52.52,0,0,0,.68-.49V148H216v9.91a.51.51,0,0,0,.67.49,5.37,5.37,0,0,1,2.58-.65,3.25,3.25,0,1,1,0,6.49,5.37,5.37,0,0,1-2.58-.65.51.51,0,0,0-.67.5V174h26v-9.9a.52.52,0,0,0-.68-.5,5.33,5.33,0,0,1-2.58.65,3.25,3.25,0,1,1,0-6.49m-9-17,2.3-2.3m-2.3,2.3,4.6-4.6m-32.22,4.6-2.3-2.3m2.3,2.3-4.6-4.6M216,132v5.74"/><path class="ffbc10f9-3554-4453-b8ec-649c44bbcb69" d="M199.7,151.26a5.28,5.28,0,0,1,.65-2.57.52.52,0,0,0-.49-.68h-9.93v26h9.93a.51.51,0,0,0,.49-.67,5.33,5.33,0,0,1-.65-2.58,3.25,3.25,0,0,1,6.5,0,5.33,5.33,0,0,1-.65,2.58.51.51,0,0,0,.49.67H216v-9.9a.51.51,0,0,1,.67-.5,5.37,5.37,0,0,0,2.58.65,3.25,3.25,0,1,0,0-6.49,5.37,5.37,0,0,0-2.58.65.51.51,0,0,1-.67-.49V148H206a.52.52,0,0,0-.49.68,5.28,5.28,0,0,1,.65,2.57,3.25,3.25,0,0,1-6.5,0Zm39.05,6.5a5.33,5.33,0,0,1,2.58.65.52.52,0,0,0,.68-.49V148H216v9.91a.51.51,0,0,0,.67.49,5.37,5.37,0,0,1,2.58-.65,3.25,3.25,0,1,1,0,6.49,5.37,5.37,0,0,1-2.58-.65.51.51,0,0,0-.67.5V174h26v-9.9a.52.52,0,0,0-.68-.5,5.33,5.33,0,0,1-2.58.65,3.25,3.25,0,1,1,0-6.49Zm-9-17,2.3-2.3m-2.3,2.3,4.6-4.6m-32.22,4.6-2.3-2.3m2.3,2.3-4.6-4.6M216,132v5.74"/></g></g></g></svg>