<svg id="ac93343f-e228-4b44-8b29-4bbbdffe6482" data-name="Layer 1" xmlns="http://www.w3.org/2000/svg" viewBox="0 0 432 305.45"><defs><style>.ba26bedb-72a8-442e-9841-c857e82e0e08{fill:#fff;}</style></defs><title>ICON6</title><path class="ba26bedb-72a8-442e-9841-c857e82e0e08" d="M220.56,128.57l-2.17-6.43-2.16,6.43a15.7,15.7,0,0,1,4.33,0"/><path class="ba26bedb-72a8-442e-9841-c857e82e0e08" d="M225.13,125.84,222.62,129a15.94,15.94,0,0,1,2.42.89Z"/><path class="ba26bedb-72a8-442e-9841-c857e82e0e08" d="M230.16,133.64l2.47-6.32-5.79,3.53a15.87,15.87,0,0,1,3.32,2.79"/><path class="ba26bedb-72a8-442e-9841-c857e82e0e08" d="M235.47,134.5l-4,.81a16.66,16.66,0,0,1,1.3,2.25Z"/><path class="ba26bedb-72a8-442e-9841-c857e82e0e08" d="M240.21,140.43l-6.7-1a15.42,15.42,0,0,1,.75,4.27Z"/><path class="ba26bedb-72a8-442e-9841-c857e82e0e08" d="M237.83,147.77l-3.62-2a15.89,15.89,0,0,1-.47,2.6Z"/><path class="ba26bedb-72a8-442e-9841-c857e82e0e08" d="M237.61,155.35l-4.49-5.08A15.55,15.55,0,0,1,231,154Z"/><path class="ba26bedb-72a8-442e-9841-c857e82e0e08" d="M231.11,159.46l-1.53-3.88a15.24,15.24,0,0,1-2.05,1.71Z"/><path class="ba26bedb-72a8-442e-9841-c857e82e0e08" d="M226,165.11l-.18-6.78a15.89,15.89,0,0,1-4.07,1.5Z"/><path class="ba26bedb-72a8-442e-9841-c857e82e0e08" d="M217.1,160.13l1.35,4,1.33-4c-.46,0-.92.06-1.39.06s-.86,0-1.29-.06"/><path class="ba26bedb-72a8-442e-9841-c857e82e0e08" d="M210.88,165.16l4.22-5.31a16.27,16.27,0,0,1-4.08-1.47Z"/><path class="ba26bedb-72a8-442e-9841-c857e82e0e08" d="M205.77,159.54l3.56-2.19a16.76,16.76,0,0,1-2.06-1.7Z"/><path class="ba26bedb-72a8-442e-9841-c857e82e0e08" d="M199.24,155.46l6.65-1.36a15.89,15.89,0,0,1-2.19-3.74Z"/><path class="ba26bedb-72a8-442e-9841-c857e82e0e08" d="M199,147.89l4.09.6a15.79,15.79,0,0,1-.48-2.59Z"/><path class="ba26bedb-72a8-442e-9841-c857e82e0e08" d="M196.55,140.56l6,3.22a15.85,15.85,0,0,1,.73-4.27Z"/><path class="ba26bedb-72a8-442e-9841-c857e82e0e08" d="M201.26,134.6l2.71,3.05a15.77,15.77,0,0,1,1.28-2.27Z"/><path class="ba26bedb-72a8-442e-9841-c857e82e0e08" d="M209.87,130.9l-5.81-3.5,2.5,6.31a16.21,16.21,0,0,1,3.31-2.81"/><path class="ba26bedb-72a8-442e-9841-c857e82e0e08" d="M211.54,125.88l.12,4a14.63,14.63,0,0,1,2.42-.9Z"/><path class="ba26bedb-72a8-442e-9841-c857e82e0e08" d="M232.68,144.15a14.24,14.24,0,1,0-14.24,14.24,14.24,14.24,0,0,0,14.24-14.24"/><path class="ba26bedb-72a8-442e-9841-c857e82e0e08" d="M221.28,182.5a43.46,43.46,0,0,1-7.48-.68l.55-2.84c3,.58,11.62,1.49,15.23-1.23a3.93,3.93,0,0,0,1.61-2.91,2.17,2.17,0,0,0-.52-1.7c-2.09-2.41-9.4-2.84-15.85-3.22-5.86-.34-11.4-.67-14.3-2.4-2.58-1.53-3.09-3.31-3.07-4.54.07-3.84,5.45-6.89,6.06-7.23l1.39,2.54c-1.47.81-4.52,3-4.55,4.74,0,.67.54,1.35,1.65,2,2.3,1.36,7.73,1.68,13,2,7.71.45,15,.88,17.87,4.22a5,5,0,0,1,1.21,3.85,6.73,6.73,0,0,1-2.75,5c-2.55,1.93-6.52,2.44-10,2.44"/><path class="ba26bedb-72a8-442e-9841-c857e82e0e08" d="M214.31,175.69h-7.72v9.42h7.72s2.15-.11,2.21-3.81v-1.8c-.06-3.69-2.21-3.81-2.21-3.81"/><path class="ba26bedb-72a8-442e-9841-c857e82e0e08" d="M200.44,177.05h5.75v1.52h-5.75a.72.72,0,0,1-.72-.72v-.07a.73.73,0,0,1,.72-.73"/><path class="ba26bedb-72a8-442e-9841-c857e82e0e08" d="M200.44,182.09h5.75v1.52h-5.75a.72.72,0,0,1-.72-.72v-.08a.72.72,0,0,1,.72-.72"/></svg>