<svg id="b594d592-85e8-4ffe-a1eb-c5152862525e" data-name="Layer 1" xmlns="http://www.w3.org/2000/svg" viewBox="0 0 432 305.45"><defs><style>.eca05c2a-6c47-42a0-a82c-09bfa8fe9b7c{fill:#fff;}</style></defs><title>ICON3</title><path class="eca05c2a-6c47-42a0-a82c-09bfa8fe9b7c" d="M236.89,129a4.13,4.13,0,1,0,4.13,4.13,4.14,4.14,0,0,0-4.13-4.13m1.88,4.13a1.88,1.88,0,1,1-1.88-1.88,1.88,1.88,0,0,1,1.88,1.88"/><path class="eca05c2a-6c47-42a0-a82c-09bfa8fe9b7c" d="M226.76,148.89a4.13,4.13,0,1,0,4.13,4.13,4.13,4.13,0,0,0-4.13-4.13m1.87,4.13a1.88,1.88,0,1,1-1.87-1.88,1.88,1.88,0,0,1,1.87,1.88"/><path class="eca05c2a-6c47-42a0-a82c-09bfa8fe9b7c" d="M207.24,148.89a4.13,4.13,0,1,0,4.13,4.13,4.13,4.13,0,0,0-4.13-4.13m1.88,4.13a1.88,1.88,0,1,1-1.88-1.88,1.88,1.88,0,0,1,1.88,1.88"/><path class="eca05c2a-6c47-42a0-a82c-09bfa8fe9b7c" d="M197.12,168.73a4.17,4.17,0,1,0,4.17,4.17,4.17,4.17,0,0,0-4.17-4.17M199,172.9a1.91,1.91,0,1,1-1.92-1.91A1.92,1.92,0,0,1,199,172.9"/><rect class="eca05c2a-6c47-42a0-a82c-09bfa8fe9b7c" x="194.03" y="161.8" width="16.26" height="2.25" transform="translate(-35.11 268.36) rotate(-62.83)"/><rect class="eca05c2a-6c47-42a0-a82c-09bfa8fe9b7c" x="223.67" y="141.95" width="16.32" height="2.25" transform="translate(-0.89 284.7) rotate(-63)"/><rect class="eca05c2a-6c47-42a0-a82c-09bfa8fe9b7c" x="210.24" y="151.89" width="13.26" height="2.25"/><polygon class="eca05c2a-6c47-42a0-a82c-09bfa8fe9b7c" points="223.83 165.45 226.76 162.52 229.69 165.45 231.28 163.86 227.55 160.13 226.76 159.34 225.96 160.13 222.24 163.86 223.83 165.45"/><polygon class="eca05c2a-6c47-42a0-a82c-09bfa8fe9b7c" points="202.72 142.18 206.45 145.91 207.24 146.71 208.04 145.91 211.77 142.18 210.17 140.59 207.24 143.52 204.31 140.59 202.72 142.18"/></svg>