<svg id="b2237e11-f56a-4ac0-a7d9-5bb3f32db5b4" data-name="Layer 1" xmlns="http://www.w3.org/2000/svg" viewBox="0 0 432 305.45"><defs><style>.e5f34da1-2eee-4840-b726-42a155eea94f{fill:#fff;}.a1ee6183-9c6c-409c-93e1-d3612446e761{fill:none;stroke:#fff;stroke-miterlimit:10;stroke-width:0.19px;}</style></defs><title>ICON4</title><path class="e5f34da1-2eee-4840-b726-42a155eea94f" d="M201.8,129.15h0a0,0,0,0,0,.06,0,.06.06,0,0,0,0-.08l-.72-.56a.06.06,0,0,0-.09,0,.07.07,0,0,0,0,.08l.71.56"/><path class="a1ee6183-9c6c-409c-93e1-d3612446e761" d="M201.8,129.15h0a0,0,0,0,0,.06,0,.06.06,0,0,0,0-.08l-.72-.56a.06.06,0,0,0-.09,0,.07.07,0,0,0,0,.08Z"/><path class="e5f34da1-2eee-4840-b726-42a155eea94f" d="M203.19,130.34h0s0,0,.06,0a.05.05,0,0,0,0-.08l-.68-.6a.06.06,0,0,0-.08,0,.05.05,0,0,0,0,.08l.68.61"/><path class="a1ee6183-9c6c-409c-93e1-d3612446e761" d="M203.19,130.34h0s0,0,.06,0a.05.05,0,0,0,0-.08l-.68-.6a.06.06,0,0,0-.08,0,.05.05,0,0,0,0,.08Z"/><path class="e5f34da1-2eee-4840-b726-42a155eea94f" d="M200.35,128.05h0s0,0,.06,0a.06.06,0,0,0,0-.08l-.76-.52a.06.06,0,0,0-.08,0s0,.07,0,.08c.25.17.51.34.75.52"/><path class="a1ee6183-9c6c-409c-93e1-d3612446e761" d="M200.35,128.05h0s0,0,.06,0a.06.06,0,0,0,0-.08l-.76-.52a.06.06,0,0,0-.08,0s0,.07,0,.08C199.85,127.7,200.11,127.87,200.35,128.05Z"/><path class="e5f34da1-2eee-4840-b726-42a155eea94f" d="M197.26,126.12h0a.11.11,0,0,0,.07,0,.07.07,0,0,0,0-.08l-.81-.42a0,0,0,0,0-.07,0,.05.05,0,0,0,0,.08c.27.13.54.28.81.42"/><path class="a1ee6183-9c6c-409c-93e1-d3612446e761" d="M197.26,126.12h0a.11.11,0,0,0,.07,0,.07.07,0,0,0,0-.08l-.81-.42a0,0,0,0,0-.07,0,.05.05,0,0,0,0,.08C196.72,125.83,197,126,197.26,126.12Z"/><path class="e5f34da1-2eee-4840-b726-42a155eea94f" d="M198.83,127h0a.07.07,0,0,0,.06,0,.05.05,0,0,0,0-.08l-.78-.47a.05.05,0,0,0-.08,0,.08.08,0,0,0,0,.08c.27.15.53.31.78.47"/><path class="a1ee6183-9c6c-409c-93e1-d3612446e761" d="M198.83,127h0a.07.07,0,0,0,.06,0,.05.05,0,0,0,0-.08l-.78-.47a.05.05,0,0,0-.08,0,.08.08,0,0,0,0,.08C198.32,126.72,198.58,126.88,198.83,127Z"/><path class="e5f34da1-2eee-4840-b726-42a155eea94f" d="M204.5,131.6a0,0,0,0,0,0,0,.07.07,0,0,0,.06,0,.06.06,0,0,0,0-.08l-.65-.64a.06.06,0,0,0-.08.08l.65.64"/><path class="a1ee6183-9c6c-409c-93e1-d3612446e761" d="M204.5,131.6a0,0,0,0,0,0,0,.07.07,0,0,0,.06,0,.06.06,0,0,0,0-.08l-.65-.64a.06.06,0,0,0-.08.08Z"/><path class="e5f34da1-2eee-4840-b726-42a155eea94f" d="M207.93,135.84s0,0,0,0h0a.06.06,0,0,0,0-.08l-.52-.75a.05.05,0,0,0-.08,0s0,0,0,.08c.18.24.35.5.52.74"/><path class="a1ee6183-9c6c-409c-93e1-d3612446e761" d="M207.93,135.84s0,0,0,0h0a.06.06,0,0,0,0-.08l-.52-.75a.05.05,0,0,0-.08,0s0,0,0,.08C207.59,135.34,207.76,135.6,207.93,135.84Z"/><path class="e5f34da1-2eee-4840-b726-42a155eea94f" d="M193.14,124.15a.05.05,0,0,0-.07,0,.07.07,0,0,0,0,.08l.86.32h0a.06.06,0,0,0,.07,0,.06.06,0,0,0,0-.08l-.86-.32"/><path class="a1ee6183-9c6c-409c-93e1-d3612446e761" d="M193.14,124.15a.05.05,0,0,0-.07,0,.07.07,0,0,0,0,.08l.86.32h0a.06.06,0,0,0,.07,0,.06.06,0,0,0,0-.08Z"/><path class="e5f34da1-2eee-4840-b726-42a155eea94f" d="M205.73,133s0,0,0,0a0,0,0,0,0,.06,0,.06.06,0,0,0,0-.08c-.19-.23-.4-.46-.6-.68a.06.06,0,0,0-.09.08c.21.22.41.45.61.68"/><path class="a1ee6183-9c6c-409c-93e1-d3612446e761" d="M205.73,133s0,0,0,0a0,0,0,0,0,.06,0,.06.06,0,0,0,0-.08c-.19-.23-.4-.46-.6-.68a.06.06,0,0,0-.09.08C205.33,132.49,205.53,132.72,205.73,133Z"/><path class="e5f34da1-2eee-4840-b726-42a155eea94f" d="M208.9,137.39l0,0h0a.05.05,0,0,0,0-.08q-.24-.41-.48-.78a0,0,0,0,0-.07,0,.05.05,0,0,0,0,.08l.47.78"/><path class="a1ee6183-9c6c-409c-93e1-d3612446e761" d="M208.9,137.39l0,0h0a.05.05,0,0,0,0-.08q-.24-.41-.48-.78a0,0,0,0,0-.07,0,.05.05,0,0,0,0,.08Z"/><path class="e5f34da1-2eee-4840-b726-42a155eea94f" d="M206.87,134.36l0,0a0,0,0,0,0,0,0,.05.05,0,0,0,0-.08l-.56-.72a.06.06,0,0,0-.08,0,.05.05,0,0,0,0,.08c.19.23.38.47.56.71"/><path class="a1ee6183-9c6c-409c-93e1-d3612446e761" d="M206.87,134.36l0,0a0,0,0,0,0,0,0,.05.05,0,0,0,0-.08l-.56-.72a.06.06,0,0,0-.08,0,.05.05,0,0,0,0,.08C206.5,133.88,206.69,134.12,206.87,134.36Z"/><path class="e5f34da1-2eee-4840-b726-42a155eea94f" d="M195.63,125.3h0a.06.06,0,0,0,.07,0,.05.05,0,0,0,0-.07c-.27-.13-.55-.26-.84-.38a.05.05,0,0,0-.07,0,.07.07,0,0,0,0,.08l.83.37"/><path class="a1ee6183-9c6c-409c-93e1-d3612446e761" d="M195.63,125.3h0a.06.06,0,0,0,.07,0,.05.05,0,0,0,0-.07c-.27-.13-.55-.26-.84-.38a.05.05,0,0,0-.07,0,.07.07,0,0,0,0,.08Z"/><path class="e5f34da1-2eee-4840-b726-42a155eea94f" d="M189.6,123.22h0l.88.22a.06.06,0,1,0,0-.11h0l-.89-.22a.06.06,0,0,0-.07,0,.07.07,0,0,0,0,.07"/><path class="a1ee6183-9c6c-409c-93e1-d3612446e761" d="M189.6,123.22h0l.88.22a.06.06,0,1,0,0-.11h0l-.89-.22a.06.06,0,0,0-.07,0A.07.07,0,0,0,189.6,123.22Z"/><path class="e5f34da1-2eee-4840-b726-42a155eea94f" d="M205.66,168.47a.06.06,0,0,0-.08,0,.05.05,0,0,0,0,.08l3.13,2.16h0a.06.06,0,0,0,.07,0,.05.05,0,0,0,0-.08Z"/><path class="a1ee6183-9c6c-409c-93e1-d3612446e761" d="M205.66,168.47a.06.06,0,0,0-.08,0,.05.05,0,0,0,0,.08l3.13,2.16h0a.06.06,0,0,0,.07,0,.05.05,0,0,0,0-.08Z"/><path class="e5f34da1-2eee-4840-b726-42a155eea94f" d="M206.82,166.62a.06.06,0,0,0-.07,0,.05.05,0,0,0,0,.08l3.29,1.91h0a.09.09,0,0,0,.07,0,.08.08,0,0,0,0-.08Z"/><path class="a1ee6183-9c6c-409c-93e1-d3612446e761" d="M206.82,166.62a.06.06,0,0,0-.07,0,.05.05,0,0,0,0,.08l3.29,1.91h0a.09.09,0,0,0,.07,0,.08.08,0,0,0,0-.08Z"/><path class="e5f34da1-2eee-4840-b726-42a155eea94f" d="M207.84,164.69a.06.06,0,0,0-.05.11l3.43,1.64h0a.08.08,0,0,0,.07,0,.06.06,0,0,0,0-.08Z"/><path class="a1ee6183-9c6c-409c-93e1-d3612446e761" d="M207.84,164.69a.06.06,0,0,0-.05.11l3.43,1.64h0a.08.08,0,0,0,.07,0,.06.06,0,0,0,0-.08Z"/><path class="e5f34da1-2eee-4840-b726-42a155eea94f" d="M212.25,164.06l-3.55-1.37a.05.05,0,0,0-.07,0,.06.06,0,0,0,0,.08l3.55,1.37h0a.06.06,0,0,0,.07,0,.05.05,0,0,0,0-.07"/><path class="a1ee6183-9c6c-409c-93e1-d3612446e761" d="M212.25,164.06l-3.55-1.37a.05.05,0,0,0-.07,0,.06.06,0,0,0,0,.08l3.55,1.37h0a.06.06,0,0,0,.07,0A.05.05,0,0,0,212.25,164.06Z"/><path class="e5f34da1-2eee-4840-b726-42a155eea94f" d="M213.66,159.31l-3.72-.8s-.07,0-.07.05,0,.05,0,.06h0l3.72.8a.06.06,0,0,0,.07,0s0-.07,0-.07"/><path class="a1ee6183-9c6c-409c-93e1-d3612446e761" d="M213.66,159.31l-3.72-.8s-.07,0-.07.05,0,.05,0,.06h0l3.72.8a.06.06,0,0,0,.07,0S213.69,159.31,213.66,159.31Z"/><path class="e5f34da1-2eee-4840-b726-42a155eea94f" d="M210,147.74s0,0,0,0h0l3.74-.68a.06.06,0,1,0,0-.12l-3.74.69a.05.05,0,0,0-.05.06"/><path class="a1ee6183-9c6c-409c-93e1-d3612446e761" d="M210,147.74s0,0,0,0h0l3.74-.68a.06.06,0,1,0,0-.12l-3.74.69A.05.05,0,0,0,210,147.74Z"/><path class="e5f34da1-2eee-4840-b726-42a155eea94f" d="M209.55,145.62s0,0,0,0h0l3.68-1a.06.06,0,0,0,0-.11l-3.68,1a.07.07,0,0,0,0,.07"/><path class="a1ee6183-9c6c-409c-93e1-d3612446e761" d="M209.55,145.62s0,0,0,0h0l3.68-1a.06.06,0,0,0,0-.11l-3.68,1A.07.07,0,0,0,209.55,145.62Z"/><path class="e5f34da1-2eee-4840-b726-42a155eea94f" d="M208.8,143.58a.19.19,0,0,0,.12.11h.1l3.59-1.27a.18.18,0,0,0,.11-.22.17.17,0,0,0-.22-.1l-3.59,1.26a.18.18,0,0,0-.11.22"/><path class="a1ee6183-9c6c-409c-93e1-d3612446e761" d="M208.8,143.58a.19.19,0,0,0,.12.11h.1l3.59-1.27a.18.18,0,0,0,.11-.22.17.17,0,0,0-.22-.1l-3.59,1.26A.18.18,0,0,0,208.8,143.58Z"/><path class="e5f34da1-2eee-4840-b726-42a155eea94f" d="M205.09,169.26a.17.17,0,1,0-.2.28l3,2.28.06,0a.18.18,0,0,0,.18-.06.16.16,0,0,0,0-.24Z"/><path class="a1ee6183-9c6c-409c-93e1-d3612446e761" d="M205.09,169.26a.17.17,0,1,0-.2.28l3,2.28.06,0a.18.18,0,0,0,.18-.06.16.16,0,0,0,0-.24Z"/><path class="e5f34da1-2eee-4840-b726-42a155eea94f" d="M206.26,167.56a.06.06,0,0,0-.08,0s0,.07,0,.08l3.21,2h0a.07.07,0,0,0,.06,0,.06.06,0,0,0,0-.08Z"/><path class="a1ee6183-9c6c-409c-93e1-d3612446e761" d="M206.26,167.56a.06.06,0,0,0-.08,0s0,.07,0,.08l3.21,2h0a.07.07,0,0,0,.06,0,.06.06,0,0,0,0-.08Z"/><path class="e5f34da1-2eee-4840-b726-42a155eea94f" d="M207.35,165.67a.08.08,0,0,0-.08,0,.06.06,0,0,0,0,.08l3.36,1.78h0a.05.05,0,0,0,.07,0,.06.06,0,0,0,0-.07Z"/><path class="a1ee6183-9c6c-409c-93e1-d3612446e761" d="M207.35,165.67a.08.08,0,0,0-.08,0,.06.06,0,0,0,0,.08l3.36,1.78h0a.05.05,0,0,0,.07,0,.06.06,0,0,0,0-.07Z"/><path class="e5f34da1-2eee-4840-b726-42a155eea94f" d="M208.29,163.7a.07.07,0,0,0-.08,0,.08.08,0,0,0,0,.08l3.5,1.51h0a.06.06,0,0,0,.07,0,.06.06,0,0,0,0-.08Z"/><path class="a1ee6183-9c6c-409c-93e1-d3612446e761" d="M208.29,163.7a.07.07,0,0,0-.08,0,.08.08,0,0,0,0,.08l3.5,1.51h0a.06.06,0,0,0,.07,0,.06.06,0,0,0,0-.08Z"/><path class="e5f34da1-2eee-4840-b726-42a155eea94f" d="M212.71,162.79l-3.6-1.23a.18.18,0,0,0-.22.1.18.18,0,0,0,.11.22l3.6,1.23h0a.18.18,0,0,0,.22-.11.17.17,0,0,0-.11-.21"/><path class="a1ee6183-9c6c-409c-93e1-d3612446e761" d="M212.71,162.79l-3.6-1.23a.18.18,0,0,0-.22.1.18.18,0,0,0,.11.22l3.6,1.23h0a.18.18,0,0,0,.22-.11A.17.17,0,0,0,212.71,162.79Z"/><path class="e5f34da1-2eee-4840-b726-42a155eea94f" d="M213.4,160.41l-3.68-.94a.17.17,0,0,0-.21.12.18.18,0,0,0,.12.21h0l3.69.94a.18.18,0,0,0,.21-.12.17.17,0,0,0-.13-.21"/><path class="a1ee6183-9c6c-409c-93e1-d3612446e761" d="M213.4,160.41l-3.68-.94a.17.17,0,0,0-.21.12.18.18,0,0,0,.12.21h0l3.69.94a.18.18,0,0,0,.21-.12A.17.17,0,0,0,213.4,160.41Z"/><path class="e5f34da1-2eee-4840-b726-42a155eea94f" d="M209.81,146.68s0,0,0,0h0l3.72-.83a.06.06,0,0,0,0-.11l-3.71.83a.08.08,0,0,0-.05.07"/><path class="a1ee6183-9c6c-409c-93e1-d3612446e761" d="M209.81,146.68s0,0,0,0h0l3.72-.83a.06.06,0,0,0,0-.11l-3.71.83A.08.08,0,0,0,209.81,146.68Z"/><path class="e5f34da1-2eee-4840-b726-42a155eea94f" d="M209.15,144.61a.14.14,0,0,0,.11.11h.1L213,143.6a.16.16,0,0,0,.11-.21.19.19,0,0,0-.22-.12l-3.63,1.13a.16.16,0,0,0-.11.21"/><path class="a1ee6183-9c6c-409c-93e1-d3612446e761" d="M209.15,144.61a.14.14,0,0,0,.11.11h.1L213,143.6a.16.16,0,0,0,.11-.21.19.19,0,0,0-.22-.12l-3.63,1.13A.16.16,0,0,0,209.15,144.61Z"/><path class="e5f34da1-2eee-4840-b726-42a155eea94f" d="M208.61,142.56l3.53-1.41a.06.06,0,0,0,0-.07s-.05-.05-.08,0l-3.54,1.4a.07.07,0,0,0,0,.07l0,0h0"/><path class="a1ee6183-9c6c-409c-93e1-d3612446e761" d="M208.61,142.56l3.53-1.41a.06.06,0,0,0,0-.07s-.05-.05-.08,0l-3.54,1.4a.07.07,0,0,0,0,.07l0,0Z"/><path class="e5f34da1-2eee-4840-b726-42a155eea94f" d="M211.09,138.78l-3.41,1.68a.05.05,0,0,0,0,.07s0,0,0,0h0l3.41-1.68a.05.05,0,0,0,0-.07.07.07,0,0,0-.08,0"/><path class="a1ee6183-9c6c-409c-93e1-d3612446e761" d="M211.09,138.78l-3.41,1.68a.05.05,0,0,0,0,.07s0,0,0,0h0l3.41-1.68a.05.05,0,0,0,0-.07A.07.07,0,0,0,211.09,138.78Z"/><path class="e5f34da1-2eee-4840-b726-42a155eea94f" d="M252.48,145.83a4.35,4.35,0,0,1-3.29-.09l1.3-2.86a1.2,1.2,0,0,0,1.6-1.5l2.93-1.1a4.33,4.33,0,0,1-2.54,5.55m-5.46,4.5L234.71,155l3.53-7.77a.75.75,0,0,0,.59,0,.82.82,0,0,0,.49-1l4.75-1.78a.2.2,0,0,0,.23.08l2.45-.92a4.57,4.57,0,0,0,2.28,2.36Zm-22,14.94-9.48-2.82a.9.9,0,0,0,0-.43l.22-.49a.8.8,0,0,0,1-.35A7.9,7.9,0,0,0,227.14,153,16,16,0,0,1,225,165.27m-7.81,6.3a15.84,15.84,0,0,1-6.43,1l4.33-9.55a1,1,0,0,0,.39-.47l9.45,2.82a15.94,15.94,0,0,1-7.74,6.2m-10.75.17-2-1.61a.17.17,0,0,0-.22.26l1.19,1a16,16,0,0,1-8.38-8h0a5.66,5.66,0,0,0,10.43-3.15l6.13,1.82a1,1,0,0,0,.09.66,1,1,0,0,0,1.29.43l-4.31,9.48a15.93,15.93,0,0,1-4.23-.82m-19-34.76-3.85,12.91a2.94,2.94,0,0,0-1.71,0,11.69,11.69,0,0,1,5.56-13m.22-.13a11.66,11.66,0,0,1,15.79,4.67l-5,2.68-.38-.17h0l-1.17-.54h0l-.22-.1a5.15,5.15,0,0,0-2-1.17,5.37,5.37,0,0,0-1-.19l-.32-.14h0L193,142a5,5,0,0,0-3,1.13l-4,1.49h0s0,0,0,0,0,0,0,0h0l2.25,1a5.13,5.13,0,0,0,.39,3.77l-3.32,1.8a3,3,0,0,0-1.67-1.37l3.88-13,.08,0m16.24,5.59a15.65,15.65,0,0,0-3.55,2.61l-1.73-.79,4.88-2.64a8.86,8.86,0,0,1,.4.82m2-.85a16.41,16.41,0,0,1,4-.94l-1.79.79a.07.07,0,0,0,0,.08s0,0,0,0h0l2.09-.93A16,16,0,0,1,225.64,149a7.88,7.88,0,0,0-12.16-.72l-3.23.47a0,0,0,0,0,0,.06.07.07,0,0,0,0,.05h0l3.08-.44a9.31,9.31,0,0,0-.87,1.19l-1.68.17-5.59-2.53a11.91,11.91,0,0,0-1-4.91,15.23,15.23,0,0,1,1.69-.76m10.91,18.9a.76.76,0,0,0-.4-.44l2-4.49a2.09,2.09,0,0,0,1.54,0A2.07,2.07,0,0,0,221.2,153l4.25-1.6a1.2,1.2,0,0,0,1.33.73,7.66,7.66,0,0,1-9.93,8.84.76.76,0,0,0,0-.47m-11.93-1.21,2.2-.82a5.72,5.72,0,0,1,.29,1.56Zm-8.55-.57a5.55,5.55,0,0,0-.16,2.37h0a15.92,15.92,0,0,1-.49-2.21l.65-.16m-.81-2.1,1.56.47a5.56,5.56,0,0,0-.63,1.24q-.41.12-.81.21a15.47,15.47,0,0,1-.12-1.92m-9.93-3,9.85,2.94a16,16,0,0,0,.12,1.95,11.68,11.68,0,0,1-10.94-3.49,3,3,0,0,0,1-1.4m3.13-4.06a5.1,5.1,0,0,0,6.89,2,4.74,4.74,0,0,0,.82-.56,16.26,16.26,0,0,0-1,5.42l-9.82-2.93a3,3,0,0,0-.22-2.15Zm3.56-2.05-3.52,1.9a5,5,0,0,1-.38-3.67Zm-3.42-2.92,5.66-2.12,1.08.49-7.2,2.7h0a5.31,5.31,0,0,1,.46-1.07m-.17.06a5.73,5.73,0,0,0-.4,1l-1-.44Zm.07-.1-1.54.58-1.08-.49,3.66-1.38a5,5,0,0,0-1,1.29m6.95-1.62h0l-1.18-.54h0l-.48-.22a3.78,3.78,0,0,1,.56.13,4.9,4.9,0,0,1,1.72.91Zm1,.6-7.11,2.67-1.08-.49,7.2-2.71.82.38.17.15m.73.7a5.33,5.33,0,0,0-.56-.68h0l1.08.49Zm.23.38c-.06-.11-.13-.21-.19-.31l.6-.23.31.15Zm.62,2.85a5,5,0,0,0-.57-2.75l.8-.43,1.76.79a16.18,16.18,0,0,0-2,2.39m13.8,2.89-1.08-.49,1.41-.15c-.12.21-.23.42-.33.64m-13.57,7.12a11.81,11.81,0,0,1-2,.79,5.85,5.85,0,0,1,.62-1.19Zm1.31-2.49a5.47,5.47,0,0,1,2.28-.35,11.72,11.72,0,0,1-3.36,2.72l-.08,0-1.43-.42a5.55,5.55,0,0,1,2.59-2m11.33,1.47-.84-.12a.06.06,0,0,0,0,.12h0l.72.09-4,1.5a5.66,5.66,0,0,0-4.45-3.44,11.61,11.61,0,0,0,1.23-1.87l7.41,3.36a.72.72,0,0,0-.06.36m2.26-.81-.77.29a.82.82,0,0,0-.81-.35s0-.06,0-.08Zm-9.13,3.43-5.16-1.54a12.22,12.22,0,0,0,3.4-2.86,5.58,5.58,0,0,1,4.43,3.4Zm7.92-8.4.06-.16.3.14Zm2.11,3.58-2.71-.14a6.91,6.91,0,0,1,0-.91l2.74,0s.06,0,.06-.05a.06.06,0,0,0-.05-.06l-2.74,0a8.35,8.35,0,0,1,.15-1l2.58-.07a.06.06,0,0,0,.06-.05.06.06,0,0,0-.06-.06l-2.56.06a8.22,8.22,0,0,1,.28-.93l1.16-.07,4.16,1.89a2,2,0,0,0-.09,1.35l-3.64,1.36-1.86-.17a7.5,7.5,0,0,1-.15-.93l2.65.15a.17.17,0,0,0,.18-.17.17.17,0,0,0-.16-.18M197,150.48a.65.65,0,0,0,.31,0,.78.78,0,0,0,.45-.4l5.71,2.59a11.94,11.94,0,0,1-1.33,2,5.74,5.74,0,0,0-2.37.34,5.68,5.68,0,0,0-2.63,2l-1.63-.49a16,16,0,0,1,1-5.54,4.08,4.08,0,0,0,.46-.47m-.25,0,.12,0-.24.24.12-.28m-.48-1.08a.78.78,0,0,0,0,.6.79.79,0,0,0,.42.46c-.06.13-.12.27-.17.41a5.09,5.09,0,0,1-1,.69,5,5,0,0,1-6.74-2l3.59-1.94Zm1.18-.38c.2-.38.42-.75.65-1.11a4.92,4.92,0,0,1-.4,1.34.78.78,0,0,0-.25-.23m.14-4.18a5,5,0,0,1,.54,2.89c-.27.41-.52.82-.75,1.25a.75.75,0,0,0-.64,0,.79.79,0,0,0-.44.38l-3.81-1.73Zm-.25-.42a3.37,3.37,0,0,1,.19.32l-5.17,2.8-1.51-.68Zm-.61-.75a5.27,5.27,0,0,1,.57.68l-6.55,2.46-1.08-.49Zm.88,18.15a1.2,1.2,0,0,0-1.38-.71,5.71,5.71,0,0,1,.17-2.37,12.07,12.07,0,0,0,2.48-1l.08,0,5.13,1.53-2.39.9a.18.18,0,0,0-.12.2ZM215.77,160a.79.79,0,0,0-.38.29,7.56,7.56,0,0,1-2.43-2.25l.91.16a.06.06,0,0,0,0-.12l-1-.18a6.86,6.86,0,0,1-.47-.79.74.74,0,0,0,.29-.32l1.37.18a.08.08,0,0,0,.07,0,.06.06,0,0,0,0-.06l-1.34-.18a.92.92,0,0,0,0-.37l4.64-1.74a2.06,2.06,0,0,0,1,.95l-2,4.49a.83.83,0,0,0-.58,0m-1.59-10.56-1.4.14a8.44,8.44,0,0,1,.94-1.22l.32,0a.07.07,0,0,0,.05-.07.06.06,0,0,0-.07,0l-.17,0a7.54,7.54,0,0,1,2.71-1.75,7.69,7.69,0,0,1,9.38,3.41,1.21,1.21,0,0,0-.52,1.42l-4.25,1.6a2,2,0,0,0-2.63-1.16,2,2,0,0,0-1.13,1l-4-1.83.92-.06a.18.18,0,0,0,.16-.18.17.17,0,0,0-.19-.16l-1.55.1-.43-.2a8,8,0,0,1,.41-.76l1.49-.15a.06.06,0,0,0,.05-.06.05.05,0,0,0-.06-.05m-3.8.5h0l.45,0,1.2.55-.11.27-1.47.09a.18.18,0,0,0-.16.18.17.17,0,0,0,.13.15h.06l1.3-.08c-.1.3-.19.61-.26.92l-1,0a.06.06,0,0,0-.05.06.05.05,0,0,0,0,.06h0l1,0a8.63,8.63,0,0,0-.14,1l-.84,0a.06.06,0,0,0-.06.06.07.07,0,0,0,0,.06h.85a6.61,6.61,0,0,0,0,.89l-.86,0a.17.17,0,0,0-.18.16.17.17,0,0,0,.12.17h0l.91.05a7.34,7.34,0,0,0,.15.92l-1.12-.11a.07.07,0,0,0-.07.05.07.07,0,0,0,0,.06h0l1.15.11a1.16,1.16,0,0,1,0,.18.83.83,0,0,0-.37.37l-7.4-3.36a12.11,12.11,0,0,0,.86-2.14,11.8,11.8,0,0,0,.5-3.21l5.44,2.47-.25,0a.06.06,0,0,0,0,.06.07.07,0,0,0,0,0m-5.52-2.76a11.06,11.06,0,0,1-.49,3.26,11.26,11.26,0,0,1-.85,2.1l-5.71-2.6a.75.75,0,0,0,0-.57.08.08,0,0,0,0,0,5.27,5.27,0,0,0,.48-1.69,15.51,15.51,0,0,1,2.08-2.5Zm0-.09-4.47-2a15.78,15.78,0,0,1,3.51-2.57,11.42,11.42,0,0,1,1,4.59M193.35,142l.12.06h-.25Zm-3,1,.46-.28a5,5,0,0,1,1.79-.56Zm2.53-.87a5.3,5.3,0,0,1,.89,0l.65.29-5.49,2.07a4.74,4.74,0,0,1,1.21-1.36Zm10.87,23.35a5.6,5.6,0,0,1-6.67-2.2,1.2,1.2,0,0,0,.56-1.44l4-1.49a.2.2,0,0,0,.23.08l2.86-1.08,2.66.79a5.6,5.6,0,0,1-3.62,5.34m11.66-3.77a1,1,0,0,0-1.82.17l-.55-.16h0l-3.65-1.08h0l-1.94-.58a5.43,5.43,0,0,0-.29-1.62l4.13-1.55a.81.81,0,0,0,.89.33c.12.22.24.44.37.65l-2.41-.42a.06.06,0,0,0-.06.05,0,0,0,0,0,0,.06h0l2.52.44a7.85,7.85,0,0,0,2.64,2.52.83.83,0,0,0,0,.56.8.8,0,0,0,.38.43l-.17.39a1.42,1.42,0,0,0-.08-.18m31.31-21a.83.83,0,0,0,.9-.45l2.21,1a1.19,1.19,0,0,0-.07.7l-2.94,1.1a4.29,4.29,0,0,1-.1-2.35m3.18,1.61a1.18,1.18,0,0,0,.51.48l-1.3,2.85a4.32,4.32,0,0,1-2.16-2.23Zm-.49-4.66a4.35,4.35,0,0,1,5.58,2.5l-2.94,1.1a1.2,1.2,0,0,0-1.53-.67,1.22,1.22,0,0,0-.66.6l-2.21-1a.86.86,0,0,0,0-.57.84.84,0,0,0-.28-.36,4.33,4.33,0,0,1,2-1.59M211.15,175a2,2,0,1,1-2.59-1.17,2,2,0,0,1,1.5,0l-.49,1.09a.85.85,0,0,0-.59,0,.83.83,0,1,0,.66,0l.49-1.08a2,2,0,0,1,1,1.1m-20.36-54.61a1.59,1.59,0,0,1,1.9-1.08l-.27.9a.59.59,0,0,0-.41.06.66.66,0,0,0-.27.89.7.7,0,0,0,.31.28l-.27.9a1.59,1.59,0,0,1-1-2m3.05.91a1.61,1.61,0,0,1-2,1.08l.27-.9a.67.67,0,0,0,.46-.06.65.65,0,0,0,.27-.88.62.62,0,0,0-.36-.3l.27-.9a1.59,1.59,0,0,1,1,2m16.66,15.19a1.58,1.58,0,0,1,2-1.07,1.54,1.54,0,0,1,.91.72l-.52.28a1,1,0,0,0-1.74.94l-.52.28a1.57,1.57,0,0,1-.1-1.15m3,.9a1.59,1.59,0,0,1-2,1.07,1.57,1.57,0,0,1-.91-.72l.53-.28a1,1,0,0,0,1.73-.94l.53-.28a1.56,1.56,0,0,1,.1,1.15m-31.76,18.14a2.9,2.9,0,0,0,2.4-.18,1,1,0,0,0,.17-.1,12,12,0,0,0,11.27,3.63,16,16,0,0,0,.48,2.22h0a1.2,1.2,0,0,0-.71,1.51l0,.08a1.22,1.22,0,0,0,1.54.67h0a16.05,16.05,0,0,0,8.66,8.18l1.56,1.26a.06.06,0,0,0,.06,0,.18.18,0,0,0,.18,0,.17.17,0,0,0,0-.24l-.8-.65a16.21,16.21,0,0,0,4,.76l-.52,1.15a2.17,2.17,0,0,0-1.57,0,2.08,2.08,0,1,0,1.64.07l.53-1.18a15.83,15.83,0,0,0,6.5-1A16,16,0,0,0,225,165.4l.06-.1a16.11,16.11,0,0,0,2-12.92c0-.1,0-.21-.07-.32a1.2,1.2,0,0,0,.7-1.51l3.89-1.46a.82.82,0,0,0,1,.44.8.8,0,0,0,.49-1l1.57-.59a.82.82,0,0,0,1.53-.57l1.57-.59a.78.78,0,0,0,.38.4L234.61,155s0,0,0,0h0l12.41-4.66,0,0,2-4.43a4.57,4.57,0,0,0,6.14-5.75l0-.07a4.56,4.56,0,0,0-8-.94.83.83,0,0,0-.58,0,.85.85,0,0,0-.43.38l0,.07a.81.81,0,0,0,.37,1.05,4.52,4.52,0,0,0,.1,2.52l-2.45.92a.19.19,0,0,0-.12.21l-4.75,1.78a.82.82,0,0,0-1.48-.05l0,.07a.83.83,0,0,0,0,.56l-1.57.58a.82.82,0,0,0-1.53.58l-1.56.59a.82.82,0,0,0-1.53.57l-3.9,1.47a1.2,1.2,0,0,0-1.52-.68c-.05-.09-.1-.19-.16-.28a16.12,16.12,0,0,0-15.5-9l1.18-.52a.06.06,0,0,0,0-.08.05.05,0,0,0-.07,0l-1.48.66a15.79,15.79,0,0,0-4.26,1,16.27,16.27,0,0,0-1.7.76c-.12-.28-.25-.56-.39-.83l.18-.1a1,1,0,0,0,1.74-.94l4.84-2.61a1.7,1.7,0,0,0,3.1-.37,1.73,1.73,0,0,0-.11-1.25L224,130.54a.67.67,0,1,0-.05-.1l-10.44,5.64a1.7,1.7,0,0,0-3,1.62l-1,.53-.06-.1a.06.06,0,0,0-.08,0,.08.08,0,0,0,0,.08l.06.11-3.75,2a1,1,0,0,0-1.32-.35,1,1,0,0,0-.42,1.29l-.19.1a12,12,0,0,0-16-4.92l2.79-9.34a.61.61,0,0,0,.39-.07.65.65,0,0,0,0-1.16l.64-2.14.75.24h0a.06.06,0,0,0,.07,0,.05.05,0,0,0,0-.07l-.76-.24.34-1.13a1.7,1.7,0,0,0,1-3.25l.7-2.34a.62.62,0,0,0,.44-.06.65.65,0,1,0-.62-1.14.64.64,0,0,0-.26.88.59.59,0,0,0,.33.29l-.7,2.34a1.7,1.7,0,0,0-1,3.25l-.34,1.13h0a.05.05,0,0,0-.07,0s0,.07,0,.07h0l-.63,2.13a.66.66,0,0,0-.75.94.66.66,0,0,0,.37.31l-2.81,9.44-.08,0a12,12,0,0,0-5.94,13.5l-.18.09a3,3,0,0,0-1.2,4,3.29,3.29,0,0,0,.52.69,3.4,3.4,0,0,0,1.1.68"/><path class="a1ee6183-9c6c-409c-93e1-d3612446e761" d="M252.48,145.83a4.35,4.35,0,0,1-3.29-.09l1.3-2.86a1.2,1.2,0,0,0,1.6-1.5l2.93-1.1A4.33,4.33,0,0,1,252.48,145.83Zm-5.46,4.5L234.71,155l3.53-7.77a.75.75,0,0,0,.59,0,.82.82,0,0,0,.49-1l4.75-1.78a.2.2,0,0,0,.23.08l2.45-.92a4.57,4.57,0,0,0,2.28,2.36Zm-22,14.94-9.48-2.82a.9.9,0,0,0,0-.43l.22-.49a.8.8,0,0,0,1-.35A7.9,7.9,0,0,0,227.14,153,16,16,0,0,1,225,165.27Zm-7.81,6.3a15.84,15.84,0,0,1-6.43,1l4.33-9.55a1,1,0,0,0,.39-.47l9.45,2.82A15.94,15.94,0,0,1,217.17,171.57Zm-10.75.17-2-1.61a.17.17,0,0,0-.22.26l1.19,1a16,16,0,0,1-8.38-8h0a5.66,5.66,0,0,0,10.43-3.15l6.13,1.82a1,1,0,0,0,.09.66,1,1,0,0,0,1.29.43l-4.31,9.48A15.93,15.93,0,0,1,206.42,171.74Zm-19-34.76-3.85,12.91a2.94,2.94,0,0,0-1.71,0A11.69,11.69,0,0,1,187.42,137Zm.22-.13a11.66,11.66,0,0,1,15.79,4.67l-5,2.68-.38-.17h0l-1.17-.54h0l-.22-.1a5.15,5.15,0,0,0-2-1.17,5.37,5.37,0,0,0-1-.19l-.32-.14h0L193,142a5,5,0,0,0-3,1.13l-4,1.49h0s0,0,0,0,0,0,0,0h0l2.25,1a5.13,5.13,0,0,0,.39,3.77l-3.32,1.8a3,3,0,0,0-1.67-1.37l3.88-13Zm16.24,5.59a15.65,15.65,0,0,0-3.55,2.61l-1.73-.79,4.88-2.64A8.86,8.86,0,0,1,203.88,142.44Zm2-.85a16.41,16.41,0,0,1,4-.94l-1.79.79a.07.07,0,0,0,0,.08s0,0,0,0h0l2.09-.93A16,16,0,0,1,225.64,149a7.88,7.88,0,0,0-12.16-.72l-3.23.47a0,0,0,0,0,0,.06.07.07,0,0,0,0,.05h0l3.08-.44a9.31,9.31,0,0,0-.87,1.19l-1.68.17-5.59-2.53a11.91,11.91,0,0,0-1-4.91A15.23,15.23,0,0,1,205.91,141.59Zm10.91,18.9a.76.76,0,0,0-.4-.44l2-4.49a2.09,2.09,0,0,0,1.54,0A2.07,2.07,0,0,0,221.2,153l4.25-1.6a1.2,1.2,0,0,0,1.33.73,7.66,7.66,0,0,1-9.93,8.84A.76.76,0,0,0,216.82,160.49Zm-11.93-1.21,2.2-.82a5.72,5.72,0,0,1,.29,1.56Zm-8.55-.57a5.55,5.55,0,0,0-.16,2.37h0a15.92,15.92,0,0,1-.49-2.21Zm-.81-2.1,1.56.47a5.56,5.56,0,0,0-.63,1.24q-.41.12-.81.21A15.47,15.47,0,0,1,195.53,156.61Zm-9.93-3,9.85,2.94a16,16,0,0,0,.12,1.95,11.68,11.68,0,0,1-10.94-3.49A3,3,0,0,0,185.6,153.65Zm3.13-4.06a5.1,5.1,0,0,0,6.89,2,4.74,4.74,0,0,0,.82-.56,16.26,16.26,0,0,0-1,5.42l-9.82-2.93a3,3,0,0,0-.22-2.15Zm3.56-2.05-3.52,1.9a5,5,0,0,1-.38-3.67Zm-3.42-2.92,5.66-2.12,1.08.49-7.2,2.7h0A5.31,5.31,0,0,1,188.87,144.62Zm-.17.06a5.73,5.73,0,0,0-.4,1l-1-.44Zm.07-.1-1.54.58-1.08-.49,3.66-1.38A5,5,0,0,0,188.77,144.58Zm6.95-1.62h0l-1.18-.54h0l-.48-.22a3.78,3.78,0,0,1,.56.13,4.9,4.9,0,0,1,1.72.91Zm1,.6-7.11,2.67-1.08-.49,7.2-2.71.82.38Zm.73.7a5.33,5.33,0,0,0-.56-.68h0l1.08.49Zm.23.38c-.06-.11-.13-.21-.19-.31l.6-.23.31.15Zm.62,2.85a5,5,0,0,0-.57-2.75l.8-.43,1.76.79A16.18,16.18,0,0,0,198.28,147.49Zm13.8,2.89-1.08-.49,1.41-.15C212.29,150,212.18,150.16,212.08,150.38Zm-13.57,7.12a11.81,11.81,0,0,1-2,.79,5.85,5.85,0,0,1,.62-1.19Zm1.31-2.49a5.47,5.47,0,0,1,2.28-.35,11.72,11.72,0,0,1-3.36,2.72l-.08,0-1.43-.42A5.55,5.55,0,0,1,199.82,155Zm11.33,1.47-.84-.12a.06.06,0,0,0,0,.12h0l.72.09-4,1.5a5.66,5.66,0,0,0-4.45-3.44,11.61,11.61,0,0,0,1.23-1.87l7.41,3.36A.72.72,0,0,0,211.15,156.48Zm2.26-.81-.77.29a.82.82,0,0,0-.81-.35s0-.06,0-.08Zm-9.13,3.43-5.16-1.54a12.22,12.22,0,0,0,3.4-2.86,5.58,5.58,0,0,1,4.43,3.4Zm7.92-8.4.06-.16.3.14Zm2.11,3.58-2.71-.14a6.91,6.91,0,0,1,0-.91l2.74,0s.06,0,.06-.05a.06.06,0,0,0-.05-.06l-2.74,0a8.35,8.35,0,0,1,.15-1l2.58-.07a.06.06,0,0,0,.06-.05.06.06,0,0,0-.06-.06l-2.56.06a8.22,8.22,0,0,1,.28-.93l1.16-.07,4.16,1.89a2,2,0,0,0-.09,1.35l-3.64,1.36-1.86-.17a7.5,7.5,0,0,1-.15-.93l2.65.15a.17.17,0,0,0,.18-.17A.17.17,0,0,0,214.31,154.28ZM197,150.48a.65.65,0,0,0,.31,0,.78.78,0,0,0,.45-.4l5.71,2.59a11.94,11.94,0,0,1-1.33,2,5.74,5.74,0,0,0-2.37.34,5.68,5.68,0,0,0-2.63,2l-1.63-.49a16,16,0,0,1,1-5.54A4.08,4.08,0,0,0,197,150.48Zm-.25,0,.12,0-.24.24Zm-.48-1.08a.78.78,0,0,0,0,.6.79.79,0,0,0,.42.46c-.06.13-.12.27-.17.41a5.09,5.09,0,0,1-1,.69,5,5,0,0,1-6.74-2l3.59-1.94Zm1.18-.38c.2-.38.42-.75.65-1.11a4.92,4.92,0,0,1-.4,1.34A.78.78,0,0,0,197.47,149Zm.14-4.18a5,5,0,0,1,.54,2.89c-.27.41-.52.82-.75,1.25a.75.75,0,0,0-.64,0,.79.79,0,0,0-.44.38l-3.81-1.73Zm-.25-.42a3.37,3.37,0,0,1,.19.32l-5.17,2.8-1.51-.68Zm-.61-.75a5.27,5.27,0,0,1,.57.68l-6.55,2.46-1.08-.49Zm.88,18.15a1.2,1.2,0,0,0-1.38-.71,5.71,5.71,0,0,1,.17-2.37,12.07,12.07,0,0,0,2.48-1l.08,0,5.13,1.53-2.39.9a.18.18,0,0,0-.12.2ZM215.77,160a.79.79,0,0,0-.38.29,7.56,7.56,0,0,1-2.43-2.25l.91.16a.06.06,0,0,0,0-.12l-1-.18a6.86,6.86,0,0,1-.47-.79.74.74,0,0,0,.29-.32l1.37.18a.08.08,0,0,0,.07,0,.06.06,0,0,0,0-.06l-1.34-.18a.92.92,0,0,0,0-.37l4.64-1.74a2.06,2.06,0,0,0,1,.95l-2,4.49A.83.83,0,0,0,215.77,160Zm-1.59-10.56-1.4.14a8.44,8.44,0,0,1,.94-1.22l.32,0a.07.07,0,0,0,.05-.07.06.06,0,0,0-.07,0l-.17,0a7.54,7.54,0,0,1,2.71-1.75,7.69,7.69,0,0,1,9.38,3.41,1.21,1.21,0,0,0-.52,1.42l-4.25,1.6a2,2,0,0,0-2.63-1.16,2,2,0,0,0-1.13,1l-4-1.83.92-.06a.18.18,0,0,0,.16-.18.17.17,0,0,0-.19-.16l-1.55.1-.43-.2a8,8,0,0,1,.41-.76l1.49-.15a.06.06,0,0,0,.05-.06A.05.05,0,0,0,214.18,149.45Zm-3.8.5h0l.45,0,1.2.55-.11.27-1.47.09a.18.18,0,0,0-.16.18.17.17,0,0,0,.13.15h.06l1.3-.08c-.1.3-.19.61-.26.92l-1,0a.06.06,0,0,0-.05.06.05.05,0,0,0,0,.06h0l1,0a8.63,8.63,0,0,0-.14,1l-.84,0a.06.06,0,0,0-.06.06.07.07,0,0,0,0,.06h.85a6.61,6.61,0,0,0,0,.89l-.86,0a.17.17,0,0,0-.18.16.17.17,0,0,0,.12.17h0l.91.05a7.34,7.34,0,0,0,.15.92l-1.12-.11a.07.07,0,0,0-.07.05.07.07,0,0,0,0,.06h0l1.15.11a1.16,1.16,0,0,1,0,.18.83.83,0,0,0-.37.37l-7.4-3.36a12.11,12.11,0,0,0,.86-2.14,11.8,11.8,0,0,0,.5-3.21l5.44,2.47-.25,0a.06.06,0,0,0,0,.06A.07.07,0,0,0,210.38,150Zm-5.52-2.76a11.06,11.06,0,0,1-.49,3.26,11.26,11.26,0,0,1-.85,2.1l-5.71-2.6a.75.75,0,0,0,0-.57.08.08,0,0,0,0,0,5.27,5.27,0,0,0,.48-1.69,15.51,15.51,0,0,1,2.08-2.5Zm0-.09-4.47-2a15.78,15.78,0,0,1,3.51-2.57A11.42,11.42,0,0,1,204.87,147.1ZM193.35,142l.12.06h-.25Zm-3,1,.46-.28a5,5,0,0,1,1.79-.56Zm2.53-.87a5.3,5.3,0,0,1,.89,0l.65.29-5.49,2.07a4.74,4.74,0,0,1,1.21-1.36Zm10.87,23.35a5.6,5.6,0,0,1-6.67-2.2,1.2,1.2,0,0,0,.56-1.44l4-1.49a.2.2,0,0,0,.23.08l2.86-1.08,2.66.79A5.6,5.6,0,0,1,203.76,165.48Zm11.66-3.77a1,1,0,0,0-1.82.17l-.55-.16h0l-3.65-1.08h0l-1.94-.58a5.43,5.43,0,0,0-.29-1.62l4.13-1.55a.81.81,0,0,0,.89.33c.12.22.24.44.37.65l-2.41-.42a.06.06,0,0,0-.06.05,0,0,0,0,0,0,.06h0l2.52.44a7.85,7.85,0,0,0,2.64,2.52.83.83,0,0,0,0,.56.8.8,0,0,0,.38.43l-.17.39A1.42,1.42,0,0,0,215.42,161.71Zm31.31-21a.83.83,0,0,0,.9-.45l2.21,1a1.19,1.19,0,0,0-.07.7l-2.94,1.1A4.29,4.29,0,0,1,246.73,140.76Zm3.18,1.61a1.18,1.18,0,0,0,.51.48l-1.3,2.85a4.32,4.32,0,0,1-2.16-2.23Zm-.49-4.66a4.35,4.35,0,0,1,5.58,2.5l-2.94,1.1a1.2,1.2,0,0,0-1.53-.67,1.22,1.22,0,0,0-.66.6l-2.21-1a.86.86,0,0,0,0-.57.84.84,0,0,0-.28-.36A4.33,4.33,0,0,1,249.42,137.71ZM211.15,175a2,2,0,1,1-2.59-1.17,2,2,0,0,1,1.5,0l-.49,1.09a.85.85,0,0,0-.59,0,.83.83,0,1,0,.66,0l.49-1.08A2,2,0,0,1,211.15,175Zm-20.36-54.61a1.59,1.59,0,0,1,1.9-1.08l-.27.9a.59.59,0,0,0-.41.06.66.66,0,0,0-.27.89.7.7,0,0,0,.31.28l-.27.9A1.59,1.59,0,0,1,190.79,120.39Zm3.05.91a1.61,1.61,0,0,1-2,1.08l.27-.9a.67.67,0,0,0,.46-.06.65.65,0,0,0,.27-.88.62.62,0,0,0-.36-.3l.27-.9A1.59,1.59,0,0,1,193.84,121.3Zm16.66,15.19a1.58,1.58,0,0,1,2-1.07,1.54,1.54,0,0,1,.91.72l-.52.28a1,1,0,0,0-1.74.94l-.52.28A1.57,1.57,0,0,1,210.5,136.49Zm3,.9a1.59,1.59,0,0,1-2,1.07,1.57,1.57,0,0,1-.91-.72l.53-.28a1,1,0,0,0,1.73-.94l.53-.28A1.56,1.56,0,0,1,213.54,137.39Zm-31.76,18.14a2.9,2.9,0,0,0,2.4-.18,1,1,0,0,0,.17-.1,12,12,0,0,0,11.27,3.63,16,16,0,0,0,.48,2.22h0a1.2,1.2,0,0,0-.71,1.51l0,.08a1.22,1.22,0,0,0,1.54.67h0a16.05,16.05,0,0,0,8.66,8.18l1.56,1.26a.06.06,0,0,0,.06,0,.18.18,0,0,0,.18,0,.17.17,0,0,0,0-.24l-.8-.65a16.21,16.21,0,0,0,4,.76l-.52,1.15a2.17,2.17,0,0,0-1.57,0,2.08,2.08,0,1,0,1.64.07l.53-1.18a15.83,15.83,0,0,0,6.5-1A16,16,0,0,0,225,165.4l.06-.1a16.11,16.11,0,0,0,2-12.92c0-.1,0-.21-.07-.32a1.2,1.2,0,0,0,.7-1.51l3.89-1.46a.82.82,0,0,0,1,.44.8.8,0,0,0,.49-1l1.57-.59a.82.82,0,0,0,1.53-.57l1.57-.59a.78.78,0,0,0,.38.4L234.61,155s0,0,0,0h0l12.41-4.66,0,0,2-4.43a4.57,4.57,0,0,0,6.14-5.75l0-.07a4.56,4.56,0,0,0-8-.94.83.83,0,0,0-.58,0,.85.85,0,0,0-.43.38l0,.07a.81.81,0,0,0,.37,1.05,4.52,4.52,0,0,0,.1,2.52l-2.45.92a.19.19,0,0,0-.12.21l-4.75,1.78a.82.82,0,0,0-1.48-.05l0,.07a.83.83,0,0,0,0,.56l-1.57.58a.82.82,0,0,0-1.53.58l-1.56.59a.82.82,0,0,0-1.53.57l-3.9,1.47a1.2,1.2,0,0,0-1.52-.68c-.05-.09-.1-.19-.16-.28a16.12,16.12,0,0,0-15.5-9l1.18-.52a.06.06,0,0,0,0-.08.05.05,0,0,0-.07,0l-1.48.66a15.79,15.79,0,0,0-4.26,1,16.27,16.27,0,0,0-1.7.76c-.12-.28-.25-.56-.39-.83l.18-.1a1,1,0,0,0,1.74-.94l4.84-2.61a1.7,1.7,0,0,0,3.1-.37,1.73,1.73,0,0,0-.11-1.25L224,130.54a.67.67,0,1,0-.05-.1l-10.44,5.64a1.7,1.7,0,0,0-3,1.62l-1,.53-.06-.1a.06.06,0,0,0-.08,0,.08.08,0,0,0,0,.08l.06.11-3.75,2a1,1,0,0,0-1.32-.35,1,1,0,0,0-.42,1.29l-.19.1a12,12,0,0,0-16-4.92l2.79-9.34a.61.61,0,0,0,.39-.07.65.65,0,0,0,0-1.16l.64-2.14.75.24h0a.06.06,0,0,0,.07,0,.05.05,0,0,0,0-.07l-.76-.24.34-1.13a1.7,1.7,0,0,0,1-3.25l.7-2.34a.62.62,0,0,0,.44-.06.65.65,0,1,0-.62-1.14.64.64,0,0,0-.26.88.59.59,0,0,0,.33.29l-.7,2.34a1.7,1.7,0,0,0-1,3.25l-.34,1.13h0a.05.05,0,0,0-.07,0s0,.07,0,.07h0l-.63,2.13a.66.66,0,0,0-.75.94.66.66,0,0,0,.37.31l-2.81,9.44-.08,0a12,12,0,0,0-5.94,13.5l-.18.09a3,3,0,0,0-1.2,4,3.29,3.29,0,0,0,.52.69A3.4,3.4,0,0,0,181.78,155.53Z"/></svg>